<?xml version="1.0" encoding="utf-8"?>
<svg viewBox="0 0 1080 1080" xmlns="http://www.w3.org/2000/svg">
  <g transform="matrix(0.9999999999999999, 0, 0, 0.9999999999999999, 540.000008046627, 540.000008046627)" id="2ccf05ce-03b8-499f-8592-870aed12d96f"/>
  <g transform="matrix(0.9999999999999999, 0, 0, 0.9999999999999999, 540.000008046627, 540.000008046627)" id="538fb0f0-5966-46bb-afde-e76d0f10b63b"/>
  <g transform="matrix(5.210596084594727, 0, 0, 5.224575996398926, 539.9997639059984, 539.9994587302126)" id="path2" style="">
    <path style="stroke: rgb(0,0,0); stroke-width: 0; stroke-dasharray: none; stroke-linecap: butt; stroke-dashoffset: 0; stroke-linejoin: miter; stroke-miterlimit: 4; fill: rgb(0,85,68); fill-rule: nonzero; opacity: 1;" vector-effect="non-scaling-stroke" transform=" translate(-105.34, -163.24)" d="M 131.35776 248.58422 C 109.77018000000001 247.92961 78.72181300000001 247.92961 62.95563600000001 247.68465999999998 C 47.188091000000014 247.43830999999997 46.70274600000001 246.94701999999998 46.29943100000001 247.02866999999998 C 45.894750000000016 247.11176999999998 45.57209800000001 247.76630999999998 41.69071000000001 252.67652999999999 C 37.80932 257.58676 30.370561 266.754 22.204467 266.18105 C 14.038375 265.6081 5.1449486 255.29496 9.7536711 238.68073 C 14.361026 222.06511 32.473264 199.14978 30.936568 178.93315 C 29.399872 158.71652 8.2169745 141.20272 2.5569002 120.8214 C -3.1031742 100.44284 6.7609409 77.199519 25.034505 67.049683 C 43.308068 56.899847 69.989714 59.847645 87.695902 65.002832 C 105.40345 70.159402 114.13692 77.526129 129.57908 76.378841 C 145.0226 75.23432 167.1762 65.575784 182.05371 62.87571199999999 C 196.92987 60.174254999999995 204.52994999999999 64.429879 205.33929999999998 74.743021 C 206.14867999999998 85.056161 200.16458999999998 101.42544 196.12186999999997 115.01160999999999 C 192.07914999999997 128.59777 189.97644999999997 139.40082999999998 194.26251999999997 151.67917 C 198.54721999999995 163.95474 209.21933999999996 177.70559 209.70467999999997 189.40959 C 210.19001999999998 201.11360000000002 200.48723999999996 210.77076 193.37249999999997 220.83894 C 186.25775999999996 230.90574 181.72968999999998 241.38218 173.40090999999998 245.96441000000002 C 165.07349 250.54803 152.94534 249.23882 131.35775999999998 248.58422000000002" stroke-linecap="round"/>
  </g>
</svg>